<?xml version="1.0" encoding="utf-8"?>
<!-- Generator: Adobe Illustrator 24.0.0, SVG Export Plug-In . SVG Version: 6.00 Build 0)  -->
<svg version="1.1" id="Camada_1" xmlns="http://www.w3.org/2000/svg" xmlns:xlink="http://www.w3.org/1999/xlink" x="0px" y="0px"
	 viewBox="0 0 555 238" style="enable-background:new 0 0 555 238;" xml:space="preserve">
<style type="text/css">
	.st0{display:none;}
	.st1{display:inline;}
	.st2{fill:none;stroke:#738F25;stroke-width:5;stroke-linecap:round;stroke-miterlimit:10;}
	.st3{fill:#C90059;}
	.st4{fill:#738F25;}
</style>
<image style="display:none;overflow:visible;" width="684" height="311" xlink:href="../../../../Downloads/FireShot/12932726_1674019616183911_3964636576430552103_n.jpg"  transform="matrix(2.9503 0 0 2.9503 -782 6.7295)">
</image>
<g class="st0">
	<path class="st1" d="M58.5,238.5l1.2-3C59.1,237.5,58.6,238.4,58.5,238.5z"/>
	<g class="st1">
		<g>
			<circle class="st2" cx="276" cy="163" r="43.5"/>
			<path class="st2" d="M517.6,175.7c-5.4,17.8-22,30.8-41.6,30.8c-24,0-43.5-19.5-43.5-43.5s19.5-43.5,43.5-43.5
				c18,0,33.5,11,40.1,26.6l-2.8,1.3L437,182.3"/>
			<line class="st2" x1="319.5" y1="207.5" x2="319.5" y2="161.5"/>
			<line class="st2" x1="369.5" y1="208" x2="369.5" y2="122.5"/>
			<line class="st2" x1="339.5" y1="208" x2="339.5" y2="80.5"/>
			<line class="st2" x1="369.5" y1="89.5" x2="369.5" y2="82.5"/>
			<path class="st2" d="M394.5,84.5v101.6c0,12.1,9.8,21.9,21.9,21.9h7.1"/>
			<line class="st2" x1="394.5" y1="122.5" x2="421.5" y2="122.5"/>
		</g>
		<path class="st3" d="M234,117c0,32.7-14.2,62.2-36.9,82.4l-1.6-1.9l-48-83l32-31l6,15l9,4l5-38c0,0-1-6-4-9c0,0-22,15-33,30
			s-45,40-49,51s-37,41-37,41s-7-5,8-48c11.2-32.1,31.9-93.8,41.6-123C186,7.9,234,56.8,234,117z"/>
		<path class="st3" d="M185.5,208.5c-17.7,12-39,19-62,19c-19.9,0-38.5-5.3-54.6-14.4l0.6-1.6c0,0,28-26,34-37s17-25,17-25l26,42v-8
			l10,7h5c0,0,4,9,11,10l-4-15L185.5,208.5z"/>
		<path class="st3" d="M13,117c0,37.3,18.5,70.3,46.8,90.3c-0.1-0.6-0.2-1.2-0.3-1.8c-4-26,3-60,3-69s37-125,37-125l5.2-3.4
			C52.6,17,13,62.4,13,117z M71.5,88.5c-2,16-11,23-11,23c-1,6-18,71-18,71c-3-19,0-26,0-26s13-48,24-89s20-40,20-40
			S73.5,72.5,71.5,88.5z"/>
	</g>
	<text transform="matrix(1 0 0 1 127.2739 285.6211)" class="st1" style="font-family:'MyriadPro-Regular'; font-size:52px;">NUIT: 400448118</text>
	<g class="st1">
		<path d="M127,298c15.1-0.3,30.3-0.5,45.4-0.7l45.4-0.4c15.1-0.2,30.3-0.1,45.4-0.2l45.4-0.1l45.4,0.1c15.1,0.1,30.3,0,45.4,0.2
			l45.4,0.4c15.1,0.2,30.3,0.4,45.4,0.7c-15.1,0.3-30.3,0.5-45.4,0.7l-45.4,0.4c-15.1,0.2-30.3,0.1-45.4,0.2l-45.4,0.1l-45.4-0.1
			c-15.1-0.1-30.3,0-45.4-0.2l-45.4-0.4C157.3,298.5,142.1,298.3,127,298z"/>
	</g>
</g>
<g>
	<path d="M58.5,238.5l1.2-3C59.1,237.5,58.6,238.4,58.5,238.5z"/>
	<g>
		<g>
			<path class="st4" d="M276,209c-25.4,0-46-20.6-46-46s20.6-46,46-46s46,20.6,46,46S301.4,209,276,209z M276,122
				c-22.6,0-41,18.4-41,41s18.4,41,41,41s41-18.4,41-41S298.6,122,276,122z"/>
			<path class="st4" d="M476,209c-18,0-33.5-10.3-41.1-25.4c-0.1-0.1-0.1-0.2-0.1-0.3c0,0,0-0.1-0.1-0.1c-3-6.1-4.7-13-4.7-20.2
				c0-25.4,20.6-46,46-46c18.5,0,35.2,11,42.4,28.1l0.9,2.2l-78.9,36.1c7.1,12.3,20.4,20.5,35.5,20.5c18.2,0,33.9-11.7,39.2-29
				c0.4-1.3,1.8-2.1,3.1-1.7c1.3,0.4,2.1,1.8,1.7,3.1C514,195.9,496.4,209,476,209z M476,122c-22.6,0-41,18.4-41,41
				c0,5.7,1.2,11.1,3.2,16l74.5-34.1C505.9,130.9,491.7,122,476,122z"/>
			<path class="st4" d="M319.5,210c-1.4,0-2.5-1.1-2.5-2.5v-46c0-1.4,1.1-2.5,2.5-2.5s2.5,1.1,2.5,2.5v46
				C322,208.9,320.9,210,319.5,210z"/>
			<path class="st4" d="M369.5,210.5c-1.4,0-2.5-1.1-2.5-2.5v-85.5c0-1.4,1.1-2.5,2.5-2.5s2.5,1.1,2.5,2.5V208
				C372,209.4,370.9,210.5,369.5,210.5z"/>
			<path class="st4" d="M339.5,210.5c-1.4,0-2.5-1.1-2.5-2.5V80.5c0-1.4,1.1-2.5,2.5-2.5s2.5,1.1,2.5,2.5V208
				C342,209.4,340.9,210.5,339.5,210.5z"/>
			<path class="st4" d="M369.5,92c-1.4,0-2.5-1.1-2.5-2.5v-7c0-1.4,1.1-2.5,2.5-2.5s2.5,1.1,2.5,2.5v7C372,90.9,370.9,92,369.5,92z"
				/>
			<path class="st4" d="M423.5,210.5h-7.1c-13.5,0-24.4-10.9-24.4-24.4V84.5c0-1.4,1.1-2.5,2.5-2.5s2.5,1.1,2.5,2.5v101.6
				c0,10.7,8.7,19.4,19.4,19.4h7.1c1.4,0,2.5,1.1,2.5,2.5S424.9,210.5,423.5,210.5z"/>
			<path class="st4" d="M421.5,125h-27c-1.4,0-2.5-1.1-2.5-2.5s1.1-2.5,2.5-2.5h27c1.4,0,2.5,1.1,2.5,2.5S422.9,125,421.5,125z"/>
		</g>
		<path class="st3" d="M234,117c0,32.7-14.2,62.2-36.9,82.4l-1.6-1.9l-48-83l32-31l6,15l9,4l5-38c0,0-1-6-4-9c0,0-22,15-33,30
			s-45,40-49,51s-37,41-37,41s-7-5,8-48c11.2-32.1,31.9-93.8,41.6-123C186,7.9,234,56.8,234,117z"/>
		<path class="st3" d="M185.5,208.5c-17.7,12-39,19-62,19c-19.9,0-38.5-5.3-54.6-14.4l0.6-1.6c0,0,28-26,34-37s17-25,17-25l26,42v-8
			l10,7h5c0,0,4,9,11,10l-4-15L185.5,208.5z"/>
		<path class="st3" d="M13,117c0,37.3,18.5,70.3,46.8,90.3c-0.1-0.6-0.2-1.2-0.3-1.8c-4-26,3-60,3-69s37-125,37-125l5.2-3.4
			C52.6,17,13,62.4,13,117z M71.5,88.5c-2,16-11,23-11,23c-1,6-18,71-18,71c-3-19,0-26,0-26s13-48,24-89s20-40,20-40
			S73.5,72.5,71.5,88.5z"/>
	</g>
</g>
</svg>
